<?xml version="1.0" encoding="utf-8"?>

<!DOCTYPE svg PUBLIC "-//W3C//DTD SVG 1.1//EN" "http://www.w3.org/Graphics/SVG/1.1/DTD/svg11.dtd">
<!-- Uploaded to: SVG Repo, www.svgrepo.com, Generator: SVG Repo Mixer Tools -->
<svg width="576px" height="576px" viewBox="0 -32 576 576" xmlns="http://www.w3.org/2000/svg">

<!-- weather svg -->
<g id='weather'>
<path d="M510.5 225.5c-6.9-37.2-39.3-65.5-78.5-65.5-12.3 0-23.9 3-34.3 8-17.4-24.1-45.6-40-77.7-40-53 0-96 43-96 96 0 .5.2 1.1.2 1.6C187.6 233 160 265.2 160 304c0 44.2 35.8 80 80 80h256c44.2 0 80-35.8 80-80 0-39.2-28.2-71.7-65.5-78.5zm-386.4 34.4c-37.4-37.4-37.4-98.3 0-135.8 34.6-34.6 89.1-36.8 126.7-7.4 20-12.9 43.6-20.7 69.2-20.7.7 0 1.3.2 2 .2l8.9-26.7c3.4-10.2-6.3-19.8-16.5-16.4l-75.3 25.1-35.5-71c-4.8-9.6-18.5-9.6-23.3 0l-35.5 71-75.3-25.1c-10.2-3.4-19.8 6.3-16.4 16.5l25.1 75.3-71 35.5c-9.6 4.8-9.6 18.5 0 23.3l71 35.5-25.1 75.3c-3.4 10.2 6.3 19.8 16.5 16.5l59.2-19.7c-.2-2.4-.7-4.7-.7-7.2 0-12.5 2.3-24.5 6.2-35.9-3.6-2.7-7.1-5.2-10.2-8.3zm69.8-58c4.3-24.5 15.8-46.4 31.9-64-9.8-6.2-21.4-9.9-33.8-9.9-35.3 0-64 28.7-64 64 0 18.7 8.2 35.4 21.1 47.1 11.3-15.9 26.6-28.9 44.8-37.2zm330.6 216.2c-7.6-4.3-17.4-1.8-21.8 6l-36.6 64c-4.4 7.7-1.7 17.4 6 21.8 2.5 1.4 5.2 2.1 7.9 2.1 5.5 0 10.9-2.9 13.9-8.1l36.6-64c4.3-7.7 1.7-17.4-6-21.8zm-96 0c-7.6-4.3-17.4-1.8-21.8 6l-36.6 64c-4.4 7.7-1.7 17.4 6 21.8 2.5 1.4 5.2 2.1 7.9 2.1 5.5 0 10.9-2.9 13.9-8.1l36.6-64c4.3-7.7 1.7-17.4-6-21.8zm-96 0c-7.6-4.3-17.4-1.8-21.8 6l-36.6 64c-4.4 7.7-1.7 17.4 6 21.8 2.5 1.4 5.2 2.1 7.9 2.1 5.5 0 10.9-2.9 13.9-8.1l36.6-64c4.3-7.7 1.7-17.4-6-21.8zm-96 0c-7.6-4.3-17.4-1.8-21.8 6l-36.6 64c-4.4 7.7-1.7 17.4 6 21.8 2.5 1.4 5.2 2.1 7.9 2.1 5.5 0 10.9-2.9 13.9-8.1l36.6-64c4.3-7.7 1.7-17.4-6-21.8z"/>
</g>

<!-- options svg -->
<g id='options'>
	<g>
		<path d="M40.003,69.679C17.914,69.679,0,87.592,0,109.697c0,22.089,17.914,39.987,40.003,39.987
			c22.089,0,40.003-17.898,40.003-39.987C80.006,87.592,62.092,69.679,40.003,69.679z"/>
	</g>
	<g>
		<path d="M40.003,190.032C17.914,190.032,0,207.93,0,230.035c0,22.089,17.914,40.002,40.003,40.002
			c22.089,0,40.003-17.913,40.003-40.002C80.006,207.93,62.092,190.032,40.003,190.032z"/>
	</g>
	<g>
		<path d="M40.003,310.37C17.914,310.37,0,328.283,0,350.372c0,22.089,17.914,40.003,40.003,40.003
			c22.089,0,40.003-17.914,40.003-40.003C80.006,328.283,62.092,310.37,40.003,310.37z"/>
	</g>
	<g>
		<path d="M429.973,79.601H145.419c-16.611,0-30.081,13.47-30.081,30.096c0,16.612,13.469,30.081,30.081,30.081h284.554
			c16.61,0,30.081-13.469,30.081-30.081C460.054,93.071,446.583,79.601,429.973,79.601z"/>
	</g>
	<g>
		<path d="M429.973,199.939H145.419c-16.611,0-30.081,13.469-30.081,30.096c0,16.612,13.469,30.081,30.081,30.081h284.554
			c16.61,0,30.081-13.469,30.081-30.081C460.054,213.408,446.583,199.939,429.973,199.939z"/>
	</g>
	<g>
		<path d="M429.973,320.291H145.419c-16.611,0-30.081,13.469-30.081,30.081c0,16.611,13.469,30.08,30.081,30.08h284.554
			c16.61,0,30.081-13.469,30.081-30.08C460.054,333.759,446.583,320.291,429.973,320.291z"/>
	</g>
</g>

<!-- map icon -->
<g id="map">
	<path d="M0 114.4v349.5c0 11.32 11.49 19.04 22 14.84L160 416V32L10.06 99.59C3.984 102 0 107.9 0 114.4zM554 33.15L416 96v384l149.9-67.59C572 409.1 576 404.1 576 397.6V48.01C576 36.69 564.6 28.94 554 33.15zM192 415.1L384 480V95.1l-192.1-64L192 415.1z"/>
</g>

<!-- settings icon -->

<g id="settings">
    <path d="M10,12H6a1,1,0,0,1-1-1V7A1,1,0,0,1,6,6h4a1,1,0,0,1,1,1v4A1,1,0,0,1,10,12ZM7,10H9V8H7Z"/><path d="M6,8.47V11h4V8.47a2.11,2.11,0,0,1-2,1A2.11,2.11,0,0,1,6,8.47Z"/><path d="M21,15.47V18h4V15.47a2.11,2.11,0,0,1-2,1A2.11,2.11,0,0,1,21,15.47Z"/><path d="M6,22.47V25h4V22.47a2.11,2.11,0,0,1-2,1A2.11,2.11,0,0,1,6,22.47Z"/><path d="M29,10H10a1,1,0,0,1,0-2H29a1,1,0,0,1,0,2Z"/><path d="M6,10H3A1,1,0,0,1,3,8H6a1,1,0,0,1,0,2Z"/><path d="M10,26H6a1,1,0,0,1-1-1V21a1,1,0,0,1,1-1h4a1,1,0,0,1,1,1v4A1,1,0,0,1,10,26ZM7,24H9V22H7Z"/><path d="M6,24H3a1,1,0,0,1,0-2H6a1,1,0,0,1,0,2Z"/><path d="M29,24H10a1,1,0,0,1,0-2H29a1,1,0,0,1,0,2Z"/><path d="M25,19H21a1,1,0,0,1-1-1V14a1,1,0,0,1,1-1h4a1,1,0,0,1,1,1v4A1,1,0,0,1,25,19Zm-3-2h2V15H22Z"/><path d="M21,17H3a1,1,0,0,1,0-2H21a1,1,0,0,1,0,2Z"/><path d="M29,17H25a1,1,0,0,1,0-2h4a1,1,0,0,1,0,2Z"/>
</g>

<!-- details icon -->
<g id="details">
	<path d="M41.3967,34.7231A2.7231,2.7231,0,1,1,44.12,32,2.723,2.723,0,0,1,41.3967,34.7231ZM34.7231,32A2.7231,2.7231,0,1,0,32,34.7231,2.7231,2.7231,0,0,0,34.7231,32Zm-9.3966,0a2.7232,2.7232,0,1,0-2.7231,2.7231A2.723,2.723,0,0,0,25.3265,32ZM32,51.4639A19.4639,19.4639,0,1,1,51.4639,32,19.486,19.486,0,0,1,32,51.4639Zm0-2A17.4639,17.4639,0,1,0,14.5361,32,17.4833,17.4833,0,0,0,32,49.4639Z"/>
</g>

</svg>