<?xml version="1.0" ?><!DOCTYPE svg  PUBLIC '-//W3C//DTD SVG 1.1//EN'  'http://www.w3.org/Graphics/SVG/1.1/DTD/svg11.dtd'><svg enable-background="new -1.147 -22.185 141.732 141.732" height="141.732px" id="Livello_1" version="1.1" viewBox="-1.147 -22.185 141.732 141.732" width="141.732px" xml:space="preserve" xmlns="http://www.w3.org/2000/svg" xmlns:xlink="http://www.w3.org/1999/xlink">
<g id="cloud-sun"><path d="M50.209,40.638c-5.234-3.909-11.73-6.227-18.771-6.227C14.076,34.413,0,48.506,0,65.889   C0,83.221,13.992,97.276,31.284,97.36v0.004h94.162v-0.007c6.791-0.154,12.251-5.771,12.251-12.677   c0-7.005-5.613-12.686-12.538-12.686c-0.272,0-0.549,0.015-0.819,0.029c-2.615-7.32-9.604-12.559-17.816-12.559   c-2.301,0-4.506,0.41-6.545,1.164c-2.501-14.88-15.423-26.22-30.997-26.22C61.944,34.413,55.448,36.729,50.209,40.638    M126.257,68.376c2.513,0,4.847,0.747,6.808,2.031c0.998-1.729,0.396-3.938-1.354-4.937l-9.533-5.441   c-0.966-0.551-2.075-0.616-3.053-0.277c2.859,2.196,5.077,5.19,6.316,8.652C125.709,68.388,125.981,68.376,126.257,68.376    M64.901,27.427l-9.533-5.442c-1.756-1.002-3.999-0.406-5.014,1.328c-1.016,1.733-0.412,3.954,1.345,4.956l7.698,4.395   c2.322-0.841,4.771-1.414,7.312-1.686C66.871,29.586,66.206,28.17,64.901,27.427 M78.371,16.697l-5.505-9.426   c-1.014-1.734-3.258-2.33-5.012-1.328c-1.756,1.002-2.357,3.222-1.344,4.956l5.504,9.426c1.014,1.735,3.258,2.329,5.012,1.328   C78.782,20.651,79.385,18.433,78.371,16.697 M78.862,24.795c-2.823,1.61-5.213,3.678-7.146,6.042   c14.833,0.767,26.943,11.82,29.354,26.178c2.04-0.753,4.245-1.165,6.546-1.165c2.639,0,5.15,0.543,7.432,1.521   c3.345-7.223,3.226-15.878-1.1-23.277C106.856,21.943,91.147,17.781,78.862,24.795 M96.142,14.512V3.628   C96.142,1.624,94.5,0,92.474,0c-2.027,0-3.67,1.624-3.67,3.628v10.886c0,2.003,1.643,3.628,3.67,3.628   C94.5,18.14,96.142,16.515,96.142,14.512 M117.332,11.63c1.016-1.732,0.412-3.951-1.343-4.953   c-1.756-1.004-3.999-0.407-5.014,1.325l-5.504,9.428c-1.016,1.733-0.412,3.952,1.344,4.956c1.754,1.002,3.998,0.404,5.013-1.328   L117.332,11.63z M133.081,23.229c-0.254-0.438-0.586-0.799-0.969-1.083c-1.141-0.856-2.736-1.006-4.055-0.253l-9.535,5.439   c-1.754,1.002-2.355,3.223-1.342,4.956c0.254,0.438,0.586,0.799,0.969,1.083c1.142,0.856,2.736,1.007,4.056,0.254l9.532-5.44   C133.493,27.183,134.095,24.964,133.081,23.229 M139.438,46.77c0-2.004-1.646-3.628-3.668-3.628h-11.01   c-2.025,0-3.672,1.624-3.672,3.628s1.646,3.628,3.672,3.628h11.01C137.796,50.397,139.438,48.773,139.438,46.77"/></g><g id="Livello_1_1_"/></svg>